<svg xmlns="http://www.w3.org/2000/svg" xmlns:xlink="http://www.w3.org/1999/xlink" width="500" zoomAndPan="magnify" viewBox="0 0 375 374.999991" height="500" preserveAspectRatio="xMidYMid meet" version="1.0"><defs><clipPath id="a290102096"><path d="M 163.003906 137 L 231 137 L 231 219 L 163.003906 219 Z M 163.003906 137 " clip-rule="nonzero"/></clipPath></defs><path fill="#a855f7" d="M 371.574219 207.773438 C 369.644531 203.675781 365.542969 201.066406 361.023438 201.066406 L 326.085938 201.066406 L 326.085938 107.898438 C 326.085938 82.207031 305.195312 61.3125 279.503906 61.3125 L 105.652344 61.3125 L 144.480469 107.898438 L 279.503906 107.898438 L 279.503906 201.066406 L 244.566406 201.066406 C 240.046875 201.066406 235.945312 203.675781 234.015625 207.773438 C 232.105469 211.875 232.710938 216.695312 235.621094 220.164062 L 293.851562 290.042969 C 296.0625 292.71875 299.347656 294.234375 302.796875 294.234375 C 306.242188 294.234375 309.527344 292.71875 311.738281 290.042969 L 369.96875 220.164062 C 372.878906 216.695312 373.484375 211.875 371.574219 207.773438 Z M 371.574219 207.773438 " fill-opacity="1" fill-rule="nonzero"/><path fill="#a855f7" d="M 93.167969 247.648438 L 93.167969 154.480469 L 128.105469 154.480469 C 132.625 154.480469 136.722656 151.875 138.65625 147.773438 C 140.566406 143.675781 139.960938 138.851562 137.050781 135.382812 L 78.820312 65.507812 C 76.605469 62.828125 73.347656 61.3125 69.875 61.3125 C 66.40625 61.3125 63.144531 62.828125 60.933594 65.507812 L 2.703125 135.382812 C -0.210938 138.851562 -0.816406 143.675781 1.09375 147.773438 C 3.027344 151.875 7.128906 154.480469 11.644531 154.480469 L 46.582031 154.480469 L 46.582031 247.648438 C 46.582031 273.339844 67.476562 294.234375 93.167969 294.234375 L 267.019531 294.234375 L 228.191406 247.648438 Z M 93.167969 247.648438 " fill-opacity="1" fill-rule="nonzero"/><g clip-path="url(#a290102096)"><path fill="#a855f7" d="M 226.953125 185.023438 C 226.953125 185.023438 176.441406 216.835938 176.441406 216.835938 C 170.96875 220.550781 163.117188 216.015625 163.324219 209.476562 C 163.324219 209.476562 163.324219 145.855469 163.324219 145.855469 C 163.109375 139.300781 170.980469 134.792969 176.441406 138.492188 L 226.957031 170.304688 C 232.289062 173.425781 232.277344 181.902344 226.953125 185.023438 Z M 226.953125 185.023438 " fill-opacity="1" fill-rule="nonzero"/></g></svg>